<svg width="30" height="30" viewBox="0 0 30 30" fill="none" xmlns="http://www.w3.org/2000/svg">
<g clip-path="url(#clip0_968_5150)">
<path d="M27.2399 23.3796C26.7863 24.4277 26.2492 25.3925 25.627 26.2795C24.7789 27.4887 24.0845 28.3258 23.5493 28.7906C22.7197 29.5535 21.8309 29.9442 20.879 29.9664C20.1957 29.9664 19.3717 29.772 18.4125 29.3776C17.4501 28.985 16.5657 28.7906 15.757 28.7906C14.9089 28.7906 13.9993 28.985 13.0263 29.3776C12.0519 29.772 11.2669 29.9776 10.6668 29.9979C9.75403 30.0368 8.84424 29.635 7.93612 28.7906C7.35651 28.285 6.63153 27.4184 5.76304 26.1906C4.83122 24.8796 4.06514 23.3592 3.46497 21.626C2.82221 19.7538 2.5 17.9409 2.5 16.1857C2.5 14.1752 2.93443 12.4412 3.80459 10.9881C4.48845 9.82094 5.39824 8.90022 6.53691 8.22432C7.67558 7.54841 8.90591 7.20398 10.2309 7.18194C10.9558 7.18194 11.9066 7.4062 13.088 7.84692C14.2661 8.28913 15.0226 8.51338 15.3542 8.51338C15.6022 8.51338 16.4425 8.25117 17.8671 7.72841C19.2143 7.24361 20.3513 7.04287 21.2827 7.12194C23.8067 7.32564 25.703 8.32061 26.964 10.1132C24.7067 11.4809 23.5901 13.3966 23.6123 15.8541C23.6327 17.7683 24.3271 19.3612 25.6919 20.626C26.3103 21.213 27.0011 21.6667 27.7696 21.9889C27.6029 22.4722 27.427 22.9352 27.2399 23.3796V23.3796ZM21.4512 0.600659C21.4512 2.101 20.9031 3.50187 19.8106 4.79849C18.4921 6.33993 16.8973 7.23064 15.1679 7.09009C15.1459 6.9101 15.1331 6.72066 15.1331 6.52159C15.1331 5.08126 15.7601 3.53983 16.8736 2.2795C17.4295 1.64137 18.1365 1.11077 18.9939 0.687508C19.8494 0.270557 20.6587 0.0399746 21.4198 0.000488281C21.442 0.201061 21.4512 0.401646 21.4512 0.60064V0.600659Z" fill="#0D0D0D"/>
</g>
<defs>
<clipPath id="clip0_968_5150">
<rect width="30" height="30" fill="white"/>
</clipPath>
</defs>
</svg>
