<svg width="39" height="39" viewBox="0 0 39 39" fill="none" xmlns="http://www.w3.org/2000/svg">
<rect x="1" y="1" width="37" height="37" rx="18.5" fill="#F8F8F8"/>
<rect x="0.5" y="0.5" width="38" height="38" rx="19" stroke="black" stroke-opacity="0.05"/>
<path d="M9.2039 24.74V24.7749H9.08542C9.08542 24.7749 9.08542 24.754 9.08542 24.7435L9.2039 24.74ZM32.6797 19.5724C32.6706 22.8958 31.4272 26.0973 29.1909 28.5558C26.9546 31.0142 23.8847 32.5544 20.577 32.8773C17.2693 33.2002 13.9596 32.2829 11.29 30.3034C8.62038 28.3239 6.78128 25.4233 6.1295 22.1644C5.47772 18.9055 6.05974 15.5207 7.76263 12.6667C9.46552 9.81266 12.1679 7.69297 15.3453 6.71886C18.5228 5.74475 21.9488 5.98568 24.9587 7.39491C27.9686 8.80414 30.3477 11.2812 31.6343 14.3454C32.3296 16.0001 32.6851 17.7776 32.6797 19.5724V19.5724ZM30.7597 19.5724C30.7611 17.8229 30.3645 16.0961 29.5998 14.5226C28.8351 12.9492 27.7223 11.5704 26.3459 10.4906C24.9694 9.41085 23.3653 8.65845 21.655 8.29039C19.9448 7.92232 18.1732 7.94825 16.4744 8.36621C14.7756 8.78416 13.1942 9.58318 11.8499 10.7028C10.5057 11.8224 9.43377 13.2331 8.71543 14.8283C7.99709 16.4234 7.65114 18.1611 7.70377 19.9098C7.7564 21.6584 8.20624 23.3722 9.01921 24.9212C9.20775 24.8743 9.39194 24.8113 9.56978 24.7331C9.81719 24.6181 10.0472 24.4682 10.2841 24.3323L10.3294 24.2905L10.2597 24.2313C10.2319 24.2034 10.2423 24.186 10.2772 24.1755C10.312 24.1651 10.2772 24.1755 10.2772 24.1755C10.4061 24.2313 10.5629 24.2034 10.6674 24.3219L10.6883 24.3463L10.8835 24.4613C10.9323 24.4891 10.9776 24.517 10.9845 24.4125L11.4341 24.6041C11.4648 24.5548 11.5067 24.5134 11.5563 24.4832C11.6059 24.4529 11.6619 24.4347 11.7198 24.4299C11.8289 24.4079 11.9352 24.374 12.0369 24.3289V24.3289L12.3157 24.1337C12.167 24.2187 12.0121 24.2921 11.8522 24.3532C11.8461 24.3558 11.8396 24.3572 11.833 24.3572C11.8265 24.3572 11.8199 24.3558 11.8139 24.3532L12.117 24.2104C12.3966 24.0779 12.6531 23.9015 12.8767 23.6877L13.3576 23.0709C13.4294 22.9213 13.4821 22.7633 13.5144 22.6005C13.5807 22.1955 13.5807 21.7824 13.5144 21.3774C13.5144 21.3216 13.5144 21.2659 13.5144 21.2136C13.5144 21.1613 13.5144 21.2136 13.5144 21.1927L13.4656 21.3042L13.4482 21.2798C13.4307 21.1683 13.4203 21.0603 13.3994 20.9523C13.3785 20.8442 13.3541 20.792 13.3332 20.7118C13.2948 20.5759 13.2635 20.44 13.2182 20.3076C13.1729 20.1752 13.1032 20.001 13.0405 19.8511C12.9777 19.7013 12.908 19.548 12.8453 19.3912C12.8209 19.3284 12.814 19.2553 12.793 19.189C12.7911 19.1511 12.7777 19.1147 12.7547 19.0845C12.6049 18.9347 12.6118 18.6977 12.4411 18.5548C12.3714 18.4991 12.354 18.3876 12.3087 18.3005L12.2738 18.2343C12.2738 18.2134 12.239 18.1855 12.2425 18.1646C12.2425 18.0322 12.1693 17.9485 12.1101 17.8475C12.0803 17.7832 12.0592 17.7152 12.0473 17.6454C12.0441 17.6065 12.0371 17.5679 12.0264 17.5304C11.9776 17.4119 11.9149 17.3039 11.8766 17.1819C11.8378 17.0563 11.8075 16.9283 11.786 16.7986C11.7407 16.5442 11.7163 16.2899 11.6536 16.0424C11.6152 15.8856 11.6362 15.7288 11.6048 15.5755C11.5903 15.5068 11.5845 15.4366 11.5874 15.3664C11.5874 15.3142 11.6187 15.2619 11.6257 15.2096C11.6682 14.988 11.688 14.7627 11.6849 14.5371C11.6622 14.3081 11.692 14.0768 11.7721 13.8611C11.788 13.7961 11.795 13.7293 11.793 13.6625C11.793 13.6415 11.793 13.6137 11.793 13.6067C11.8905 13.5405 11.8905 13.4325 11.9114 13.3349C11.9637 13.084 12.0055 12.8331 12.0578 12.5822C12.0793 12.5124 12.1098 12.4456 12.1484 12.3836C12.1812 12.3281 12.2172 12.2745 12.2564 12.2233L12.5178 11.8748C12.6255 11.7388 12.7255 11.5969 12.8174 11.4497C12.9529 11.2165 13.1508 11.0258 13.3889 10.8992C13.6976 10.7261 13.9924 10.5292 14.2705 10.3103C14.7594 9.91995 15.3379 9.65766 15.9536 9.54713C16.2219 9.49834 16.4798 9.40426 16.7411 9.33457L17.0025 9.26487C17.0174 9.26144 17.0329 9.26144 17.0478 9.26487C17.1769 9.29791 17.3123 9.29791 17.4415 9.26487C17.6541 9.237 17.8701 9.20912 18.0827 9.18821C18.229 9.18821 18.3754 9.1673 18.5218 9.16033C18.574 9.16033 18.6263 9.18473 18.6751 9.18473C18.797 9.18473 18.9155 9.18473 19.0235 9.18473C19.4046 9.14465 19.7889 9.14465 20.17 9.18473C20.393 9.2126 20.616 9.26139 20.8355 9.29972H20.8564C20.9917 9.30872 21.123 9.3493 21.2397 9.4182C21.3896 9.47395 21.5359 9.54713 21.6893 9.60288C21.9519 9.69739 22.1817 9.86555 22.3513 10.0872C22.5392 10.335 22.6906 10.6084 22.8009 10.8992C22.8115 10.9268 22.8243 10.9536 22.8392 10.9793C22.9779 11.1956 23.0858 11.4302 23.1598 11.6762C23.2091 11.8156 23.2464 11.959 23.2713 12.1048C23.3006 12.2472 23.3626 12.3808 23.4525 12.4951C23.5675 12.6415 23.679 12.7948 23.8009 12.9446C23.8425 13.0017 23.8809 13.061 23.9159 13.1223C23.9473 13.1781 23.9682 13.2443 24.003 13.3001C24.0427 13.3695 24.0906 13.4339 24.1459 13.4917C24.3691 13.7256 24.5077 14.0273 24.5397 14.3489C24.5476 14.3974 24.5592 14.4451 24.5745 14.4918C24.6059 14.6153 24.6059 14.7447 24.5745 14.8681C24.5316 15.0591 24.5234 15.2562 24.5501 15.4501C24.5571 15.5475 24.5571 15.6453 24.5501 15.7428C24.5495 15.7694 24.5556 15.7958 24.5678 15.8196C24.5799 15.8433 24.5978 15.8636 24.6198 15.8787C24.7522 15.9728 24.8881 16.0703 25.0171 16.1714C25.0601 16.2097 25.0997 16.2517 25.1355 16.2968C25.2436 16.4153 25.362 16.5303 25.4631 16.6453C25.6381 16.8528 25.7256 17.1202 25.707 17.391C25.7086 17.4025 25.7086 17.4143 25.707 17.4258C25.6592 17.5644 25.6288 17.7084 25.6164 17.8544C25.6107 17.9387 25.5876 18.0209 25.5487 18.0959C25.5097 18.1708 25.4556 18.2369 25.3899 18.29C25.362 18.3109 25.3377 18.3388 25.3063 18.3667L25.5049 18.4991C25.5477 18.5228 25.585 18.5552 25.6144 18.5942C25.6438 18.6332 25.6647 18.678 25.6757 18.7256C25.6953 18.8149 25.7258 18.9015 25.7663 18.9835C25.8116 19.0706 25.7663 19.1647 25.8046 19.2413C25.8429 19.318 25.822 19.3877 25.8255 19.4643C25.8255 19.4434 25.8255 19.419 25.8255 19.4016C25.7976 19.5271 25.7732 19.6525 25.7454 19.7779L25.7697 19.8093C25.9614 20.0393 25.6269 20.6874 25.6269 20.6874C25.5711 20.778 25.5119 20.8721 25.4631 20.9662C25.4112 21.0628 25.3692 21.1644 25.3377 21.2694C25.3028 21.3774 25.3725 21.4575 25.4352 21.5307C25.5024 21.6182 25.5913 21.6867 25.6931 21.7293C25.7279 21.7293 25.7454 21.7921 25.7732 21.8234L25.8917 21.9698C25.925 22.0085 25.9542 22.0505 25.9788 22.0952C26.045 22.2241 26.059 22.3775 26.1809 22.4855C26.2227 22.5203 26.2262 22.6075 26.2262 22.6737C26.2185 22.7296 26.2044 22.7846 26.1844 22.8374C26.1391 22.9803 26.1008 23.1232 26.052 23.266C26.0276 23.3462 25.9928 23.4263 25.9614 23.503C25.93 23.5797 25.8987 23.6145 25.8778 23.6737C25.8644 23.7315 25.8327 23.7833 25.7875 23.8216C25.7423 23.8599 25.686 23.8826 25.6269 23.8863L25.5014 23.9072C25.4641 23.9086 25.4278 23.9192 25.3955 23.938C25.3633 23.9569 25.3362 23.9834 25.3167 24.0152C25.2545 24.1138 25.1641 24.1914 25.0572 24.238C24.9504 24.2846 24.832 24.2981 24.7174 24.2766C24.4658 24.2462 24.2181 24.1889 23.9787 24.1058C23.8839 24.0907 23.7975 24.0425 23.7347 23.9699C23.7174 23.9554 23.6972 23.9447 23.6755 23.9386C23.4915 23.845 23.3205 23.7278 23.1667 23.5901C23.112 23.5528 23.0504 23.5267 22.9855 23.5135C22.9542 23.5135 22.9158 23.5135 22.8845 23.4925C22.7107 23.4466 22.5309 23.4278 22.3513 23.4368C22.1601 23.4546 21.9795 23.5327 21.8356 23.6598C21.5587 23.9116 21.3296 24.2115 21.1596 24.5449C21.0342 24.7679 20.9331 25.0014 20.8111 25.2418C20.7639 25.3588 20.7471 25.4859 20.7624 25.6112C20.7542 25.8664 20.7179 26.12 20.6543 26.3673C20.6125 26.5555 20.5777 26.7472 20.5393 26.9388C20.5319 26.9661 20.5345 26.9952 20.5466 27.0208C20.5588 27.0463 20.5797 27.0667 20.6055 27.0782C20.853 27.235 21.1004 27.3988 21.3513 27.5486C21.4697 27.6218 21.6021 27.6636 21.7241 27.7263C22.0743 27.9191 22.3909 28.1674 22.6615 28.4616C22.9969 28.8227 23.3695 29.1474 23.7731 29.4303C23.8637 29.493 23.9717 29.5279 24.0658 29.5871C24.1599 29.6464 24.3132 29.7683 24.4386 29.8485C26.3379 28.8857 27.9337 27.4162 29.0494 25.6025C30.165 23.7888 30.757 21.7017 30.7597 19.5724Z" fill="#323232"/>
</svg>
