<svg width="30" height="30" viewBox="0 0 30 30" fill="none" xmlns="http://www.w3.org/2000/svg">
<path d="M29.8915 21.822C29.6847 21.2551 29.2863 20.9487 28.8344 20.7036C28.7501 20.6576 28.6735 20.6116 28.6045 20.581C28.4666 20.512 28.3288 20.4431 28.1909 20.3741C26.7813 19.6234 25.6781 18.6888 24.9197 17.5703C24.7052 17.2562 24.5137 16.9192 24.3605 16.5744C24.2915 16.3906 24.2992 16.2833 24.3452 16.1837C24.3911 16.1071 24.4524 16.0458 24.529 15.9922C24.7742 15.8313 25.0193 15.6705 25.1878 15.5632C25.4866 15.364 25.7318 15.2108 25.885 15.1036C26.4595 14.6975 26.8656 14.2685 27.1184 13.7859C27.4784 13.1118 27.5244 12.3227 27.2486 11.6103C26.8656 10.599 25.9156 9.97853 24.7588 9.97853C24.5137 9.97853 24.2762 10.0015 24.0311 10.0551C23.9698 10.0705 23.9008 10.0858 23.8396 10.1011C23.8472 9.41163 23.8319 8.68386 23.7706 7.96375C23.5561 5.44337 22.6675 4.12572 21.7482 3.0762C21.1583 2.41738 20.4688 1.85815 19.6951 1.42149C18.3009 0.624769 16.7151 0.21875 14.9914 0.21875C13.2677 0.21875 11.6896 0.624769 10.2954 1.42149C9.52165 1.85815 8.83218 2.41738 8.2423 3.0762C7.32302 4.12572 6.44203 5.45103 6.21987 7.96375C6.15858 8.68386 6.14326 9.41163 6.15092 10.1011C6.08964 10.0858 6.02835 10.0705 5.9594 10.0551C5.72192 10.0015 5.47678 9.97853 5.2393 9.97853C4.08252 9.97853 3.13259 10.6067 2.74956 11.6103C2.47377 12.3227 2.51973 13.1118 2.87979 13.7859C3.13259 14.2685 3.53861 14.6975 4.11317 15.1036C4.26638 15.2108 4.50387 15.364 4.81029 15.5632C4.97117 15.6705 5.20865 15.8237 5.44613 15.9769C5.5304 16.0305 5.59935 16.0995 5.65297 16.1837C5.69894 16.2833 5.7066 16.3906 5.62999 16.5897C5.47678 16.9268 5.29292 17.2562 5.07842 17.5627C4.33533 18.6505 3.26283 19.5774 1.89921 20.3205C1.17911 20.7036 0.428353 20.9564 0.106602 21.822C-0.13088 22.4732 0.0223344 23.2086 0.627533 23.8368C0.849694 24.0666 1.11016 24.2658 1.39361 24.419C1.98348 24.7408 2.61166 24.9936 3.27049 25.1698C3.40838 25.2081 3.53095 25.2617 3.64586 25.3383C3.86802 25.5298 3.83738 25.8209 4.12849 26.2499C4.27404 26.4721 4.46556 26.6636 4.68006 26.8168C5.30058 27.2458 5.99771 27.2688 6.73314 27.2995C7.39962 27.3224 8.15038 27.3531 9.01604 27.6365C9.37609 27.7514 9.74381 27.9813 10.1728 28.2494C11.207 28.8852 12.6166 29.7509 14.9838 29.7509C17.3509 29.7509 18.7682 28.8776 19.81 28.2417C20.239 27.9813 20.6067 27.7514 20.9515 27.6365C21.8095 27.3531 22.5679 27.3224 23.2344 27.2995C23.9698 27.2688 24.6669 27.2458 25.2874 26.8168C25.5479 26.633 25.7624 26.4031 25.9156 26.1274C26.1301 25.7673 26.1225 25.5145 26.3216 25.3383C26.4289 25.2617 26.5515 25.2081 26.674 25.1774C27.3329 25.0012 27.9764 24.7484 28.5739 24.419C28.8727 24.2581 29.1485 24.0436 29.3783 23.7908L29.3859 23.7832C29.9835 23.1703 30.129 22.4502 29.8915 21.822ZM27.7925 22.9482C26.5132 23.6529 25.6552 23.5763 24.9963 24.0053C24.4294 24.3654 24.7665 25.1468 24.3605 25.4302C23.8549 25.775 22.3687 25.4072 20.4535 26.0431C18.8677 26.564 17.8642 28.0732 15.0144 28.0732C12.1646 28.0732 11.184 26.5717 9.57527 26.0431C7.66009 25.4072 6.17391 25.7826 5.6683 25.4302C5.26228 25.1468 5.59169 24.3654 5.03246 24.0053C4.36597 23.5763 3.51563 23.6529 2.23629 22.9482C1.41659 22.4962 1.88389 22.2204 2.15202 22.0901C6.79442 19.8456 7.53752 16.3752 7.56816 16.1148C7.60646 15.8007 7.65243 15.5555 7.30769 15.2415C6.97828 14.935 5.50742 14.0234 5.09374 13.7399C4.4196 13.265 4.12083 12.7977 4.34299 12.2155C4.4962 11.8171 4.87158 11.6639 5.26228 11.6639C5.38485 11.6639 5.50742 11.6792 5.62999 11.7022C6.37308 11.8631 7.09319 12.2308 7.50687 12.338C7.5605 12.3534 7.60646 12.361 7.66009 12.361C7.88225 12.361 7.95886 12.2461 7.94354 11.9933C7.89757 11.1813 7.78266 9.60315 7.91289 8.12463C8.08909 6.09453 8.74025 5.08332 9.52165 4.19467C9.89702 3.76567 11.6513 1.91177 15.0144 1.91177C18.3775 1.91177 20.1318 3.75801 20.5071 4.18701C21.2885 5.07566 21.9397 6.08687 22.1159 8.11697C22.2461 9.59549 22.1312 11.1736 22.0776 11.9856C22.0623 12.2538 22.1389 12.3534 22.361 12.3534C22.4147 12.3534 22.4606 12.3457 22.5143 12.3304C22.9279 12.2308 23.648 11.8554 24.3911 11.6945C24.5137 11.6639 24.6363 11.6562 24.7588 11.6562C25.1495 11.6562 25.5249 11.8094 25.6781 12.2078C25.9003 12.79 25.6015 13.2573 24.9274 13.7323C24.5214 14.0157 23.0505 14.9274 22.7134 15.2338C22.3687 15.5479 22.4147 15.793 22.453 16.1071C22.4836 16.3676 23.2267 19.8379 27.8691 22.0825C28.1449 22.2127 28.6045 22.4962 27.7925 22.9482Z" fill="#0D0D0D"/>
</svg>
